<?xml version="1.0" encoding="utf-8"?>
<svg version="1.1" id="Layer_1" xmlns="http://www.w3.org/2000/svg" xmlns:xlink="http://www.w3.org/1999/xlink" x="0px" y="0px"
	 viewBox="0 0 432 122" style="enable-background:new 0 0 432 122;" xml:space="preserve">
<style type="text/css">
	.st0{fill:#F0ECF7;}
	.st1{fill:#30D3AE;}
	.st2{fill:#454DE6;}
	.st3{fill:#1A0134;}
	.st4{fill:#FFFFFF;}
</style>
<g>
	<polygon class="st2" points="224.7,40.2 224.7,32.4 212.3,32.4 212.3,92 224.7,92 224.7,61.6 224.9,43.6 245.8,43.7 245.8,31.2 
		233.3,31.2 	"/>
	<path class="st2" d="M299.8,8.8c-4.5-2.5-9.4-3.7-14.9-3.7h-31.3v43.3v12.5V92h13.7V61h17.7c5.5,0,10.4-1.2,14.9-3.7
		c4.5-2.5,8-5.9,10.5-10.1c2.5-4.3,3.8-9,3.8-14.1c0-5.1-1.3-9.8-3.8-14.1C307.8,14.7,304.3,11.3,299.8,8.8z M298.4,40.9
		c-1.4,2.4-3.2,4.3-5.6,5.6c-2.4,1.4-5,2.1-7.8,2.1h-17.7v-31h17.7c2.8,0,5.4,0.7,7.8,2c2.4,1.4,4.3,3.2,5.6,5.6c1.4,2.4,2,5,2,7.8
		C300.4,35.9,299.7,38.5,298.4,40.9z"/>
	<path class="st2" d="M134.1,5.2L99.3,92.1h14.3l8.7-22.3h38.5l8.7,22.3h14.3L149,5.2H134.1z M127.3,57.3l14.1-35.7h0.2l14.1,35.7
		H127.3z"/>
	<rect x="189.3" y="32.5" class="st2" width="12.4" height="59.6"/>
	<path class="st2" d="M195.5,8.7c-1.9,0-3.6,0.7-5.2,2.2c-1.5,1.4-2.3,3.2-2.3,5.3c0,2.1,0.8,3.8,2.3,5.3c1.5,1.4,3.2,2.2,5.2,2.2
		c1.9,0,3.6-0.7,5.1-2.2c1.5-1.4,2.3-3.2,2.3-5.3c0-2.1-0.8-3.8-2.3-5.3C199.1,9.4,197.4,8.7,195.5,8.7z"/>
	<polygon class="st2" points="115.6,5.3 115.6,5.2 4.5,5.2 4.5,17.3 102,17.3 99,24.8 105.3,30.8 96.6,30.8 96.6,30.8 31.5,30.8 
		31.5,42.9 91.8,42.9 88.3,51.7 94.4,57.5 86,57.5 86,57.5 58.8,57.5 58.8,69.6 81.2,69.6 74.7,85.9 81.3,92.1 116,5.2 	"/>
	<path class="st2" d="M354.3,34.2c-3.8-2-8.1-3-13-3c-5,0-9.6,1.1-13.7,3.2c-4.1,2.2-7.4,4.8-9.9,7.9l8.1,8.1
		c1.8-2.2,4.1-4.1,6.8-5.7c2.7-1.6,5.6-2.4,8.7-2.4c2.4,0,4.5,0.5,6.4,1.5c1.9,1,3.3,2.3,4.4,4c1.1,1.7,1.6,3.2,1.6,5.2v2.1
		l-14.7,0.1c0,0-12.1-0.4-18.9,7.1c-6.2,6.8-5.6,13.6-5.6,13.6c0,3.1,0.8,5.9,2.5,8.6c1.7,2.7,4.1,4.8,7.1,6.4
		c3,1.6,6.4,2.4,10.2,2.4h8.3l11-11v9.7h12.4V54.2c0-4.3-1-8.2-3.1-11.7C361,39,358.1,36.2,354.3,34.2z M351.5,74.2
		c-1.5,2.6-3.5,4.7-6.1,6.3c-2.6,1.5-5.4,2.3-8.4,2.3c-2,0-3.7-0.4-5.3-1.1c-1.5-0.7-2.7-1.7-3.5-2.9c-0.8-1.2-1.2-2.5-1.2-4
		c0,0-0.5-2.5,2-5.5c2.9-3.4,9.1-3.4,9.1-3.4l15.5,0C353.6,68.8,352.9,71.8,351.5,74.2z"/>
	<polygon class="st2" points="414.4,32.4 397.5,76.7 397.3,76.7 380.5,32.4 366.7,32.4 391.1,92.7 380.7,118.4 394.2,118.3 
		428.2,32.4 	"/>
</g>
</svg>
